<?xml version="1.0"?>
<svg version="1.1" xmlns="http://www.w3.org/2000/svg" width="400px" height="200px" style="border: dashed 2px #aaa"><path fill="#f5851d" d="M50.8935546875,94.5654296875q0-0.234375,0.16845703125-0.38818359375t0.3955078125-0.24169921875t0.498046875-0.1171875t0.47607421875-0.029296875q0.4248046875,0,0.90087890625,0.1171875t0.71044921875,0.5126953125q0.4248046875,0.7177734375,0.62255859375,1.70654296875t0.37353515625,1.89697265625q0.263671875,1.259765625,0.673828125,2.63671875t0.85693359375,2.80517578125t0.91552734375,2.80517578125t0.8203125,2.578125q0.4248046875-1.7724609375,0.78369140625-3.6328125t0.6884765625-3.720703125t0.6884765625-3.720703125t0.78369140625-3.6474609375q0.087890625-0.4248046875,0.1318359375-1.0693359375t0.18310546875-1.2451171875t0.40283203125-1.03271484375t0.8056640625-0.43212890625q0.5712890625,0,0.76904296875,0.31494140625t0.19775390625,0.91552734375q-0.146484375,1.6552734375-0.47607421875,3.28125t-0.60791015625,3.251953125q-0.3955078125,2.0068359375-0.85693359375,4.02099609375t-0.8642578125,4.03564453125t-0.6884765625,4.05029296875t-0.34423828125,4.06494140625q0.029296875,0.087890625,0.087890625,0.205078125t0.05859375,0.17578125q0,0.17578125-0.1611328125,0.32958984375t-0.40283203125,0.263671875t-0.52734375,0.16845703125t-0.53466796875,0.05859375q-0.234375,0-0.53466796875-0.029296875t-0.6005859375-0.10986328125t-0.52734375-0.21240234375t-0.28564453125-0.3369140625q-0.234375-0.6884765625-0.43212890625-1.34033203125t-0.37353515625-1.34033203125q-0.8349609375-3.0029296875-1.75048828125-5.89599609375t-1.69189453125-5.88134765625q-0.3662109375-1.34765625-0.54931640625-2.64404296875t-0.59326171875-2.55615234375q0.05859375,0.1171875,0.05859375,0.1904296875q-0.05859375-0.205078125-0.1171875-0.38818359375t-0.1318359375-0.40283203125q0,0.05859375,0.0146484375,0.0732421875t0.0146484375,0.0439453125q0-0.029296875-0.0146484375-0.0439453125t-0.0146484375-0.0439453125z M66.738330078125,109.1845703125q0-1.34765625,0.31494140625-2.64404296875t0.53466796875-2.58544921875q0.05859375-0.3369140625,0.46142578125-0.41748046875t0.68115234375-0.08056640625q0.4833984375,0,0.7763671875,0.146484375q0.1171875,0.05859375,0.2197265625,0.1318359375t0.1025390625,0.1904296875q0,1.259765625-0.30029296875,2.4609375t-0.30029296875,2.548828125q0,0.4541015625,0.06591796875,0.85693359375t0.12451171875,0.79833984375l0.087890625,0.4248046875q0,0.1171875,0.0146484375,0.205078125t0.0439453125,0.205078125q0,0.263671875-0.37353515625,0.35888671875t-0.65185546875,0.09521484375q-0.4248046875,0-0.78369140625-0.16845703125t-0.56396484375-0.57861328125l-0.205078125-0.4248046875q-0.17578125-0.3369140625-0.17578125-0.75439453125t-0.0732421875-0.76904296875z M67.675830078125,100.3662109375l0-0.2783203125q0-0.6884765625,0.34423828125-1.23046875t1.03271484375-0.5419921875q0.087890625,0,0.16845703125,0.0146484375t0.16845703125,0.0146484375q0.17578125,0.029296875,0.46142578125,0.13916015625t0.28564453125,0.34423828125l0,0.029296875q-0.05859375,0.1171875-0.0732421875,0.24169921875t-0.0732421875,0.21240234375l0.029296875-0.029296875q-0.17578125,0.4541015625-0.28564453125,0.732421875t-0.24169921875,0.44677734375t-0.32958984375,0.24169921875t-0.56396484375,0.0732421875q-0.05859375,0-0.205078125-0.0146484375t-0.31494140625-0.05859375t-0.28564453125-0.1171875t-0.1171875-0.2197265625z M73.13486328125,109.3603515625q0-1.142578125,0.24169921875-2.07275390625t0.76904296875-1.57470703125t1.38427734375-1.00341796875t2.08740234375-0.35888671875q0.6884765625,0,1.40625,0.18310546875t1.23046875,0.68115234375q0-0.29296875,0.05859375-1.20849609375t0.146484375-2.13134765625t0.18310546875-2.548828125t0.16845703125-2.4755859375t0.1318359375-1.9189453125t0.087890625-0.87890625q0.146484375-0.4248046875,0.5419921875-0.50537109375t0.7470703125-0.08056640625q0.9228515625,0,1.13525390625,0.29296875t0.21240234375,1.171875q0,3.2080078125-0.28564453125,6.38671875t-0.28564453125,6.38671875q0,2.0654296875,0.08056640625,4.15283203125t0.57861328125,4.10888671875l0.1611328125,0.146484375l0.087890625,0.263671875l-0.2197265625,0.3369140625q-0.556640625,0.3515625-1.2890625,0.3515625l-0.05859375,0q-0.7470703125,0-1.376953125-0.3515625q-0.234375-0.146484375-0.38818359375-0.87158203125t-0.24169921875-1.5966796875t-0.1318359375-1.67724609375t-0.0732421875-1.142578125q-0.5126953125,1.171875-1.39892578125,2.01416015625t-2.23388671875,0.84228515625q-1.0546875,0-1.728515625-0.4541015625t-1.04736328125-1.1572265625t-0.52734375-1.57470703125t-0.15380859375-1.73583984375z M74.90732421875,109.4482421875q0,0.3369140625,0.08056640625,0.99609375t0.25634765625,1.318359375t0.49072265625,1.171875t0.82763671875,0.5126953125q0.6884765625-0.3369140625,1.2451171875-1.12060546875t0.95947265625-1.728515625t0.6298828125-1.8896484375t0.22705078125-1.63330078125q0-0.8642578125-0.6298828125-1.435546875t-1.5087890625-0.5712890625q-0.263671875,0-0.53466796875,0.1025390625t-0.50537109375,0.234375q-0.5419921875,0.5126953125-0.84228515625,0.93017578125t-0.4541015625,0.8642578125t-0.19775390625,0.98876953125t-0.0439453125,1.259765625z M87.031396484375,112.5390625q0.087890625-2.373046875,0.15380859375-4.86328125t0.12451171875-4.91455078125t0.087890625-4.70947265625t0.029296875-4.2626953125q0.029296875-0.3955078125,0.6884765625-0.6298828125t1.57470703125-0.34423828125t1.93359375-0.13916015625t1.80908203125-0.029296875q0.17578125,0,0.732421875-0.0146484375l0.2783203125,0q0.4248046875,0,0.8935546875,0.029296875q0.615234375,0.0439453125,1.07666015625,0.1904296875t0.46142578125,0.4248046875q0,0.205078125-0.1611328125,0.32958984375t-0.37353515625,0.18310546875t-0.439453125,0.0732421875t-0.31494140625,0.0146484375q-1.376953125,0-2.724609375-0.0439453125q-0.3662109375-0.0146484375-0.7470703125-0.0146484375q-0.99609375,0-2.021484375,0.087890625q0.05859375,0.17578125,0.09521484375,1.06201171875t0.03662109375,1.99951171875t-0.0146484375,2.17529296875t0,1.63330078125l0,3.80859375q0.4541015625-0.029296875,0.8935546875-0.029296875l0.87890625,0l0.5859375-0.029296875q0.29296875-0.0146484375,0.615234375-0.0146484375q0.3369140625,0,0.6884765625,0.0146484375q0.703125,0.029296875,1.28173828125,0.16845703125t0.57861328125,0.49072265625q0,0.263671875-0.2197265625,0.38818359375t-0.49072265625,0.18310546875t-0.5126953125,0.05859375l-0.27099609375,0q-0.8349609375,0-1.73583984375-0.05859375t-1.67724609375-0.05859375q-0.146484375,0.05859375-0.31494140625,0.0439453125t-0.30029296875-0.0146484375q0,2.197265625-0.0439453125,4.37255859375t-0.1025390625,4.32861328125q0,0.4248046875-0.53466796875,0.556640625t-1.01806640625,0.1318359375q-0.5419921875,0-0.85693359375-0.1318359375t-0.44677734375-0.43212890625t-0.1611328125-0.79833984375q-0.0146484375-0.2783203125-0.029296875-0.615234375q0-0.2783203125,0.0146484375-0.6005859375z M98.9796875,114.736328125q0-0.4248046875,0.03662109375-0.8935546875t0.06591796875-0.87890625l0.087890625-2.197265625q0.146484375-2.63671875,0.35888671875-5.185546875t0.35888671875-5.15625q0.087890625-1.435546875,0.1318359375-2.81982421875t0.1318359375-2.81982421875q-0.05859375-0.1171875-0.05859375-0.1611328125q0-0.205078125,0.15380859375-0.322265625t0.35888671875-0.19775390625t0.43212890625-0.10986328125t0.34423828125-0.029296875l0.3369140625,0q0.4541015625,0.05859375,0.6591796875,0.28564453125t0.263671875,0.5419921875t0.029296875,0.673828125t-0.029296875,0.66650390625q0,2.1240234375-0.1025390625,4.32861328125t-0.234375,4.423828125t-0.24169921875,4.4384765625t-0.10986328125,4.38720703125l0,1.025390625q0,0.6884765625-0.38818359375,0.908203125t-1.07666015625,0.2197265625q-0.6005859375,0-1.0546875-0.263671875t-0.4541015625-0.8642578125z M105.69848632812,109.1845703125q0-1.34765625,0.31494140625-2.64404296875t0.53466796875-2.58544921875q0.05859375-0.3369140625,0.46142578125-0.41748046875t0.68115234375-0.08056640625q0.4833984375,0,0.7763671875,0.146484375q0.1171875,0.05859375,0.2197265625,0.1318359375t0.1025390625,0.1904296875q0,1.259765625-0.30029296875,2.4609375t-0.30029296875,2.548828125q0,0.4541015625,0.06591796875,0.85693359375t0.12451171875,0.79833984375l0.087890625,0.4248046875q0,0.1171875,0.0146484375,0.205078125t0.0439453125,0.205078125q0,0.263671875-0.37353515625,0.35888671875t-0.65185546875,0.09521484375q-0.4248046875,0-0.78369140625-0.16845703125t-0.56396484375-0.57861328125l-0.205078125-0.4248046875q-0.17578125-0.3369140625-0.17578125-0.75439453125t-0.0732421875-0.76904296875z M106.63598632812,100.3662109375l0-0.2783203125q0-0.6884765625,0.34423828125-1.23046875t1.03271484375-0.5419921875q0.087890625,0,0.16845703125,0.0146484375t0.16845703125,0.0146484375q0.17578125,0.029296875,0.46142578125,0.13916015625t0.28564453125,0.34423828125l0,0.029296875q-0.05859375,0.1171875-0.0732421875,0.24169921875t-0.0732421875,0.21240234375l0.029296875-0.029296875q-0.17578125,0.4541015625-0.28564453125,0.732421875t-0.24169921875,0.44677734375t-0.32958984375,0.24169921875t-0.56396484375,0.0732421875q-0.05859375,0-0.205078125-0.0146484375t-0.31494140625-0.05859375t-0.28564453125-0.1171875t-0.1171875-0.2197265625z M111.34794921875,114.1357421875q0-0.087890625,0.21240234375-0.46875t0.5419921875-0.91552734375t0.7177734375-1.16455078125t0.7763671875-1.2451171875t0.72509765625-1.11328125t0.5126953125-0.76171875q-0.17578125-0.3369140625-0.6005859375-0.9228515625t-0.87158203125-1.1865234375t-0.7763671875-1.1572265625t-0.32958984375-0.8203125q0-0.4248046875,0.41748046875-0.556640625t0.81298828125-0.1318359375q0.4248046875,0,0.6005859375,0.0732421875t0.46875,0.41015625q-0.029296875,0.087890625,0.21240234375,0.46142578125t0.5712890625,0.791015625t0.6298828125,0.76171875t0.35888671875,0.44677734375l0.64453125-0.64453125t0.79833984375-0.73974609375t0.87158203125-0.6005859375t0.8349609375-0.24169921875q0.146484375,0,0.44677734375,0.0732421875t0.30029296875,0.29296875q-0.4248046875,0.4541015625-0.7763671875,0.7470703125t-0.7177734375,0.59326171875t-0.732421875,0.673828125t-0.849609375,0.94482421875q0.205078125,0.3369140625,0.7763671875,1.11328125t1.1572265625,1.64794921875t1.03271484375,1.640625t0.44677734375,1.06201171875q0,0.17578125-0.18310546875,0.28564453125t-0.41748046875,0.18310546875t-0.47607421875,0.1025390625t-0.35888671875,0.029296875q-0.3369140625,0-0.76904296875-0.087890625t-0.62255859375-0.3955078125q-0.5712890625-0.8349609375-0.98876953125-1.75048828125t-1.01806640625-1.75048828125q-0.1171875,0.205078125-0.47607421875,0.966796875t-0.85693359375,1.60400390625t-1.04736328125,1.50146484375t-1.00341796875,0.6591796875l-0.029296875,0q-0.205078125,0-0.5859375-0.0732421875t-0.380859375-0.3369140625z M122.81284179688,110.13671875q0-1.025390625,0.22705078125-2.4169921875t0.76904296875-2.63671875t1.42822265625-2.11669921875t2.23388671875-0.87158203125q1.259765625,0,1.8896484375,0.72509765625t0.6298828125,1.95556640625q0,0.8056640625-0.30029296875,1.76513671875t-0.85693359375,1.81640625t-1.318359375,1.42822265625t-1.69921875,0.5712890625l-0.380859375-0.029296875q0,0.3955078125,0.1171875,1.06201171875t0.34423828125,1.32568359375t0.5859375,1.1572265625t0.87158203125,0.498046875q0.7470703125,0,1.435546875-0.6005859375t1.3037109375-1.3330078125t1.142578125-1.3330078125t0.966796875-0.6005859375q0.234375,0,0.4833984375,0.0732421875t0.2783203125,0.41015625q0,0.205078125-0.10986328125,0.3369140625t-0.19775390625,0.29296875q-0.4541015625,0.7763671875-0.98876953125,1.4794921875t-1.20849609375,1.2744140625t-1.47216796875,0.90087890625t-1.76513671875,0.32958984375q-1.259765625,0-2.0947265625-0.44677734375t-1.34765625-1.201171875t-0.73974609375-1.7431640625t-0.22705078125-2.07275390625z M125.43491210938,109.0234375l0.41015625,0.3662109375q0.29296875,0.263671875,0.5859375,0.1171875t0.52734375-0.53466796875t0.43212890625-0.95947265625t0.3515625-1.171875t0.22705078125-1.171875t0.0732421875-0.9521484375l0-0.498046875t-0.0439453125-0.52734375t-0.15380859375-0.41748046875t-0.34423828125-0.21240234375q-0.0732421875-0.0146484375-0.1318359375-0.0146484375q-0.498046875,0-0.849609375,0.6298828125q-0.380859375,0.703125-0.615234375,1.70654296875t-0.3369140625,2.05810546875t-0.1318359375,1.58203125z M135.0541015625,105.4345703125q0-0.6005859375,0.21240234375-1.0107421875t0.90087890625-0.41015625q0.263671875,0,0.6591796875,0.08056640625t0.4541015625,0.40283203125q0.146484375,0.8642578125,0.1611328125,1.875t0.1025390625,1.904296875q0.3369140625-0.6591796875,0.8642578125-1.4208984375t1.201171875-1.40625t1.46484375-1.0693359375t1.611328125-0.4248046875q0.05859375,0,0.2197265625,0.0439453125t0.30029296875,0.12451171875t0.16845703125,0.18310546875t-0.1611328125,0.1904296875q-0.05859375,0.17578125-0.2490234375,0.21240234375t-0.3369140625,0.03662109375q-0.087890625,0-0.2783203125-0.0732421875q-1.083984375,0.5712890625-1.845703125,1.552734375t-1.2451171875,2.17529296875t-0.703125,2.51953125t-0.2197265625,2.58544921875q0,0.6298828125-0.28564453125,0.76171875t-0.91552734375,0.1318359375q-0.3369140625,0-0.71044921875-0.0732421875t-0.52001953125-0.46875q-0.263671875-0.8349609375-0.43212890625-1.9189453125t-0.25634765625-2.23388671875t-0.12451171875-2.26318359375t-0.03662109375-2.0068359375z"/><path fill="#" d=""/></svg>
